<svg xmlns="http://www.w3.org/2000/svg" version="1.1" xmlns:xlink="http://www.w3.org/1999/xlink" xmlns:svgjs="http://svgjs.dev/svgjs" width="1500" height="1500" viewBox="0 0 1500 1500"><rect width="1500" height="1500" fill="#ffffff"></rect><g transform="matrix(0.6666666666666666,0,0,0.6666666666666666,249.39393939393938,438.5856950067477)"><svg viewBox="0 0 396 247" data-background-color="#ffffff" preserveAspectRatio="xMidYMid meet" height="935" width="1500" xmlns="http://www.w3.org/2000/svg" xmlns:xlink="http://www.w3.org/1999/xlink"><g id="tight-bounds" transform="matrix(1,0,0,1,0.2400000000000091,-0.09999999999999432)"><svg viewBox="0 0 395.52 247.2" height="247.2" width="395.52"><g><svg></svg></g><g><svg viewBox="0 0 395.52 247.2" height="247.2" width="395.52"><g transform="matrix(1,0,0,1,153.0203314285714,47.215199999999996)"><svg viewBox="0 0 89.47933714285715 152.7696" height="152.7696" width="89.47933714285715"><g><svg viewBox="0 0 89.47933714285715 152.7696" height="152.7696" width="89.47933714285715"><g><svg viewBox="0 0 89.47933714285715 152.7696" height="152.7696" width="89.47933714285715"><g id="textblocktransform"><svg viewBox="0 0 89.47933714285715 152.7696" height="152.7696" width="89.47933714285715" id="textblock"><g><svg viewBox="0 0 89.47933714285715 152.7696" height="152.7696" width="89.47933714285715"><g transform="matrix(1,0,0,1,0,0)"><svg width="89.47933714285715" viewBox="1.7999999999999998 -28 16.4 28" height="152.7696" data-palette-color="#000000"><path d="M18-24Q18.2-23.2 18.2-22L18.2-22Q18.2-20.85 18-20L18-20Q18.2-19.2 18.2-18L18.2-18Q18.2-16.85 18-16L18-16Q18.2-15.2 18.2-14L18.2-14Q18.2-12.85 18-12L18-12Q18.2-11.2 18.2-10L18.2-10Q18.2-8.85 18-8L18-8Q18.2-7.2 18.2-6L18.2-6Q18.2-4.85 18-4L18-4Q18.2-3.2 18.2-2L18.2-2Q18.2-0.85 18 0L18 0 14 0Q13.8-0.85 13.8-2L13.8-2Q13.8-3.2 14-4L14-4Q13.8-4.85 13.8-6L13.8-6Q13.8-7.2 14-8L14-8Q13.8-8.85 13.8-10L13.8-10Q13.8-11.2 14-12L14-12Q13.8-12.85 13.8-14L13.8-14Q13.8-15.2 14-16L14-16Q13.8-16.85 13.8-18L13.8-18Q13.8-19.2 14-20L14-20 12.5-20Q12.7-19.2 12.7-18L12.7-18Q12.7-16.85 12.5-16L12.5-16Q12.7-15.2 12.7-14L12.7-14Q12.7-12.85 12.5-12L12.5-12 11.5-12Q11.7-11.2 11.7-10L11.7-10Q11.7-8.85 11.5-8L11.5-8Q11.7-7.2 11.7-6L11.7-6Q11.7-4.85 11.5-4L11.5-4 8.5-4Q8.3-4.85 8.3-6L8.3-6Q8.3-7.2 8.5-8L8.5-8Q8.3-8.85 8.3-10L8.3-10Q8.3-11.2 8.5-12L8.5-12 7.5-12Q7.3-12.85 7.3-14L7.3-14Q7.3-15.2 7.5-16L7.5-16Q7.3-16.85 7.3-18L7.3-18Q7.3-19.2 7.5-20L7.5-20 6-20Q6.2-19.2 6.2-18L6.2-18Q6.2-16.85 6-16L6-16Q6.2-15.2 6.2-14L6.2-14Q6.2-12.85 6-12L6-12Q6.2-11.2 6.2-10L6.2-10Q6.2-8.85 6-8L6-8Q6.2-7.2 6.2-6L6.2-6Q6.2-4.85 6-4L6-4Q6.2-3.2 6.2-2L6.2-2Q6.2-0.85 6 0L6 0 2 0Q1.8-0.85 1.8-2L1.8-2Q1.8-3.2 2-4L2-4Q1.8-4.85 1.8-6L1.8-6Q1.8-7.2 2-8L2-8Q1.8-8.85 1.8-10L1.8-10Q1.8-11.2 2-12L2-12Q1.8-12.85 1.8-14L1.8-14Q1.8-15.2 2-16L2-16Q1.8-16.85 1.8-18L1.8-18Q1.8-19.2 2-20L2-20Q1.8-20.85 1.8-22L1.8-22Q1.8-23.2 2-24L2-24Q1.8-24.85 1.8-26L1.8-26Q1.8-27.2 2-28L2-28 7-28Q7.2-27.2 7.2-26L7.2-26Q7.2-24.85 7-24L7-24 8.5-24Q8.7-23.2 8.7-22L8.7-22Q8.7-20.85 8.5-20L8.5-20 9.25-20Q9.45-19.2 9.45-18L9.45-18Q9.45-16.85 9.25-16L9.25-16 10.75-16Q10.55-16.85 10.55-18L10.55-18Q10.55-19.2 10.75-20L10.75-20 11.5-20Q11.3-20.85 11.3-22L11.3-22Q11.3-23.2 11.5-24L11.5-24 13-24Q12.8-24.85 12.8-26L12.8-26Q12.8-27.2 13-28L13-28 18-28Q18.2-27.2 18.2-26L18.2-26Q18.2-24.85 18-24L18-24Z" opacity="1" transform="matrix(1,0,0,1,0,0)" fill="#000000" class="wordmark-text-0" data-fill-palette-color="primary" id="text-0"></path></svg></g></svg></g></svg></g></svg></g></svg></g></svg></g><path d="M335.322 41.215L335.322 0 88.122 0 88.122 247.2 335.322 247.2 335.322 205.985 321.545 205.985 321.545 233.423 101.899 233.423 101.899 13.777 321.545 13.777 321.545 41.215Z" fill="#000000" stroke="transparent" data-fill-palette-color="tertiary"></path></svg></g><defs></defs></svg><rect width="395.52" height="247.2" fill="none" stroke="none" visibility="hidden"></rect></g></svg></g></svg>